<mxfile host="app.diagrams.net" agent="Mozilla/5.0 (X11; Linux x86_64) AppleWebKit/537.36 (KHTML, like Gecko) Chrome/128.0.0.0 Safari/537.36" version="24.8.6">
  <diagram name="Página-1" id="_SN50D7O0ajJCIGk6Nql">
    <mxGraphModel dx="1608" dy="754" grid="0" gridSize="10" guides="1" tooltips="1" connect="1" arrows="1" fold="1" page="1" pageScale="1" pageWidth="827" pageHeight="1169" math="0" shadow="0">
      <root>
        <mxCell id="0" />
        <mxCell id="1" parent="0" />
        <mxCell id="lrpYDE9n772tPHV7e_9b-1" value="&lt;strong&gt;¿El dígito tiene un&lt;/strong&gt;&lt;div&gt;&lt;strong&gt;bucle cerrado?&lt;/strong&gt;&lt;/div&gt;" style="rounded=0;whiteSpace=wrap;html=1;" vertex="1" parent="1">
          <mxGeometry x="316" y="181" width="132" height="36" as="geometry" />
        </mxCell>
        <mxCell id="lrpYDE9n772tPHV7e_9b-2" value="&lt;font style=&quot;font-size: 36px;&quot;&gt;Digitos asignados: 0, 1, 5, 6, 9&lt;/font&gt;" style="text;html=1;align=center;verticalAlign=middle;resizable=0;points=[];autosize=1;strokeColor=none;fillColor=none;" vertex="1" parent="1">
          <mxGeometry x="50" y="90" width="510" height="60" as="geometry" />
        </mxCell>
        <mxCell id="lrpYDE9n772tPHV7e_9b-3" value="&lt;div style=&quot;text-align: center;&quot;&gt;&lt;span style=&quot;background-color: initial; font-size: 36px; text-wrap: nowrap;&quot;&gt;Arbol de decisión&lt;/span&gt;&lt;/div&gt;" style="text;whiteSpace=wrap;html=1;" vertex="1" parent="1">
          <mxGeometry x="60" y="40" width="520" height="70" as="geometry" />
        </mxCell>
        <mxCell id="lrpYDE9n772tPHV7e_9b-4" value="&lt;p&gt;&lt;strong&gt;¿El dígito tiene una línea recta vertical como principal característica?&lt;/strong&gt;&lt;/p&gt;" style="rounded=0;whiteSpace=wrap;html=1;" vertex="1" parent="1">
          <mxGeometry x="127" y="309" width="124" height="103" as="geometry" />
        </mxCell>
        <mxCell id="lrpYDE9n772tPHV7e_9b-6" value="" style="endArrow=classic;html=1;rounded=0;exitX=0.25;exitY=1;exitDx=0;exitDy=0;entryX=0.5;entryY=0;entryDx=0;entryDy=0;" edge="1" parent="1" source="lrpYDE9n772tPHV7e_9b-1" target="lrpYDE9n772tPHV7e_9b-4">
          <mxGeometry width="50" height="50" relative="1" as="geometry">
            <mxPoint x="277.952" y="217.01199999999994" as="sourcePoint" />
            <mxPoint x="222.16638935108153" y="300" as="targetPoint" />
          </mxGeometry>
        </mxCell>
        <mxCell id="lrpYDE9n772tPHV7e_9b-10" value="&lt;p&gt;&lt;strong style=&quot;background-color: initial;&quot;&gt;¿&lt;/strong&gt;&lt;strong style=&quot;background-color: initial;&quot;&gt;El bucle cerrado ocupa toda la figura?&lt;/strong&gt;&lt;br&gt;&lt;/p&gt;" style="rounded=0;whiteSpace=wrap;html=1;" vertex="1" parent="1">
          <mxGeometry x="426" y="302" width="135" height="43" as="geometry" />
        </mxCell>
        <mxCell id="lrpYDE9n772tPHV7e_9b-11" value="5" style="rounded=0;whiteSpace=wrap;html=1;" vertex="1" parent="1">
          <mxGeometry x="80" y="494" width="48" height="43" as="geometry" />
        </mxCell>
        <mxCell id="lrpYDE9n772tPHV7e_9b-12" value="" style="endArrow=classic;html=1;rounded=0;exitX=0.25;exitY=1;exitDx=0;exitDy=0;entryX=0.5;entryY=0;entryDx=0;entryDy=0;" edge="1" parent="1">
          <mxGeometry width="50" height="50" relative="1" as="geometry">
            <mxPoint x="162" y="412" as="sourcePoint" />
            <mxPoint x="103.5" y="494" as="targetPoint" />
          </mxGeometry>
        </mxCell>
        <mxCell id="lrpYDE9n772tPHV7e_9b-15" value="Si" style="text;html=1;align=center;verticalAlign=middle;whiteSpace=wrap;rounded=0;" vertex="1" parent="1">
          <mxGeometry x="444" y="243" width="60" height="30" as="geometry" />
        </mxCell>
        <mxCell id="lrpYDE9n772tPHV7e_9b-16" value="No" style="text;html=1;align=center;verticalAlign=middle;whiteSpace=wrap;rounded=0;" vertex="1" parent="1">
          <mxGeometry x="178" y="243" width="60" height="30" as="geometry" />
        </mxCell>
        <mxCell id="lrpYDE9n772tPHV7e_9b-18" value="" style="endArrow=classic;html=1;rounded=0;shadow=0;exitX=0.75;exitY=1;exitDx=0;exitDy=0;entryX=0.5;entryY=0;entryDx=0;entryDy=0;" edge="1" parent="1">
          <mxGeometry width="50" height="50" relative="1" as="geometry">
            <mxPoint x="210" y="412" as="sourcePoint" />
            <mxPoint x="264" y="494" as="targetPoint" />
          </mxGeometry>
        </mxCell>
        <mxCell id="lrpYDE9n772tPHV7e_9b-19" value="No" style="text;html=1;align=center;verticalAlign=middle;whiteSpace=wrap;rounded=0;" vertex="1" parent="1">
          <mxGeometry x="93" y="429" width="60" height="30" as="geometry" />
        </mxCell>
        <mxCell id="lrpYDE9n772tPHV7e_9b-20" value="1" style="rounded=0;whiteSpace=wrap;html=1;" vertex="1" parent="1">
          <mxGeometry x="241" y="494" width="48" height="43" as="geometry" />
        </mxCell>
        <mxCell id="lrpYDE9n772tPHV7e_9b-21" value="Si" style="text;whiteSpace=wrap;html=1;" vertex="1" parent="1">
          <mxGeometry x="239" y="430" width="43" height="36" as="geometry" />
        </mxCell>
        <mxCell id="lrpYDE9n772tPHV7e_9b-22" value="" style="endArrow=classic;html=1;rounded=0;exitX=0.25;exitY=1;exitDx=0;exitDy=0;entryX=0.5;entryY=0;entryDx=0;entryDy=0;" edge="1" parent="1">
          <mxGeometry width="50" height="50" relative="1" as="geometry">
            <mxPoint x="451" y="345" as="sourcePoint" />
            <mxPoint x="392.5" y="427" as="targetPoint" />
          </mxGeometry>
        </mxCell>
        <mxCell id="lrpYDE9n772tPHV7e_9b-23" value="No" style="text;html=1;align=center;verticalAlign=middle;whiteSpace=wrap;rounded=0;" vertex="1" parent="1">
          <mxGeometry x="382" y="362" width="60" height="30" as="geometry" />
        </mxCell>
        <mxCell id="lrpYDE9n772tPHV7e_9b-25" value="&lt;p style=&quot;text-align: left;&quot;&gt;&lt;strong&gt;¿El bucle cerrado&lt;/strong&gt;&lt;strong style=&quot;background-color: initial;&quot;&gt;&amp;nbsp;es pequeño y&amp;nbsp;&lt;/strong&gt;&lt;strong style=&quot;background-color: initial;&quot;&gt;se encuentra en la&lt;/strong&gt;&lt;span style=&quot;background-color: initial; text-align: center;&quot;&gt;&lt;b&gt;&amp;nbsp;&lt;/b&gt;&lt;/span&gt;&lt;strong style=&quot;background-color: initial;&quot;&gt;parte superior?&lt;/strong&gt;&lt;/p&gt;" style="rounded=0;whiteSpace=wrap;html=1;" vertex="1" parent="1">
          <mxGeometry x="341" y="427" width="125" height="84" as="geometry" />
        </mxCell>
        <mxCell id="lrpYDE9n772tPHV7e_9b-29" value="" style="endArrow=classic;html=1;rounded=0;shadow=0;exitX=0.75;exitY=1;exitDx=0;exitDy=0;entryX=0.5;entryY=0;entryDx=0;entryDy=0;" edge="1" parent="1">
          <mxGeometry width="50" height="50" relative="1" as="geometry">
            <mxPoint x="521" y="345" as="sourcePoint" />
            <mxPoint x="575" y="427" as="targetPoint" />
          </mxGeometry>
        </mxCell>
        <mxCell id="lrpYDE9n772tPHV7e_9b-30" value="0" style="rounded=0;whiteSpace=wrap;html=1;" vertex="1" parent="1">
          <mxGeometry x="552" y="427" width="48" height="43" as="geometry" />
        </mxCell>
        <mxCell id="lrpYDE9n772tPHV7e_9b-31" value="Si" style="text;whiteSpace=wrap;html=1;" vertex="1" parent="1">
          <mxGeometry x="550" y="363" width="43" height="36" as="geometry" />
        </mxCell>
        <mxCell id="lrpYDE9n772tPHV7e_9b-35" value="6" style="rounded=0;whiteSpace=wrap;html=1;" vertex="1" parent="1">
          <mxGeometry x="291" y="593" width="48" height="43" as="geometry" />
        </mxCell>
        <mxCell id="lrpYDE9n772tPHV7e_9b-36" value="" style="endArrow=classic;html=1;rounded=0;exitX=0.25;exitY=1;exitDx=0;exitDy=0;entryX=0.5;entryY=0;entryDx=0;entryDy=0;" edge="1" parent="1">
          <mxGeometry width="50" height="50" relative="1" as="geometry">
            <mxPoint x="373" y="511" as="sourcePoint" />
            <mxPoint x="314.5" y="593" as="targetPoint" />
          </mxGeometry>
        </mxCell>
        <mxCell id="lrpYDE9n772tPHV7e_9b-37" value="No" style="text;html=1;align=center;verticalAlign=middle;whiteSpace=wrap;rounded=0;" vertex="1" parent="1">
          <mxGeometry x="304" y="528" width="60" height="30" as="geometry" />
        </mxCell>
        <mxCell id="lrpYDE9n772tPHV7e_9b-38" value="" style="endArrow=classic;html=1;rounded=0;shadow=0;exitX=0.75;exitY=1;exitDx=0;exitDy=0;entryX=0.5;entryY=0;entryDx=0;entryDy=0;" edge="1" parent="1">
          <mxGeometry width="50" height="50" relative="1" as="geometry">
            <mxPoint x="425" y="511" as="sourcePoint" />
            <mxPoint x="479" y="593" as="targetPoint" />
          </mxGeometry>
        </mxCell>
        <mxCell id="lrpYDE9n772tPHV7e_9b-39" value="9" style="rounded=0;whiteSpace=wrap;html=1;" vertex="1" parent="1">
          <mxGeometry x="456" y="593" width="48" height="43" as="geometry" />
        </mxCell>
        <mxCell id="lrpYDE9n772tPHV7e_9b-40" value="Si" style="text;whiteSpace=wrap;html=1;" vertex="1" parent="1">
          <mxGeometry x="454" y="529" width="43" height="36" as="geometry" />
        </mxCell>
        <mxCell id="lrpYDE9n772tPHV7e_9b-43" value="" style="endArrow=classic;html=1;rounded=0;shadow=0;exitX=0.75;exitY=1;exitDx=0;exitDy=0;entryX=0.5;entryY=0;entryDx=0;entryDy=0;" edge="1" parent="1" target="lrpYDE9n772tPHV7e_9b-10">
          <mxGeometry width="50" height="50" relative="1" as="geometry">
            <mxPoint x="412" y="217" as="sourcePoint" />
            <mxPoint x="463.4788732394368" y="302" as="targetPoint" />
          </mxGeometry>
        </mxCell>
      </root>
    </mxGraphModel>
  </diagram>
</mxfile>
